<svg aria-hidden="true" style="position: absolute; width: 0; height: 0; overflow: hidden;" version="1.1" xmlns="http://www.w3.org/2000/svg" xmlns:xlink="http://www.w3.org/1999/xlink">
<defs>
<symbol id="icon-facebook" viewBox="0 0 32 32">
<path d="M17.794 6.85c0-1.287 1.15-1.75 2.438-1.75s2.663 0.4 2.663 0.4l0.825-4.9c0 0-1.75-0.6-5.925-0.6-2.563 0-4.050 0.975-5.137 2.413-1.025 1.362-1.063 3.55-1.063 4.963v3.213h-3.313v4.787h3.313v16.625h6.2v-16.625h4.912l0.363-4.787h-5.275v-3.737z"></path>
</symbol>
<symbol id="icon-telegram" viewBox="0 0 32 32">
<path d="M25.6 5.867l-21.733 8.4c-1.467 0.533-1.467 1.467-0.267 1.733l5.467 1.733 2.133 6.4c0.267 0.667 0.133 0.933 0.8 0.933 0.533 0 0.8-0.267 1.067-0.533 0.133-0.133 1.333-1.333 2.667-2.667l5.6 4.133c1.067 0.533 1.733 0.267 2-0.933l3.733-17.467c0.4-1.467-0.533-2.267-1.467-1.733zM22.8 9.867l-10.4 9.467-0.4 4.4-2.133-6.4 12.267-7.733c0.533-0.4 1.067-0.133 0.667 0.267z"></path>
</symbol>
<symbol id="icon-github" viewBox="0 0 32 32">
<path d="M16 2.667c-0.015-0-0.033-0-0.050-0-7.364 0-13.333 5.97-13.333 13.333 0 5.875 3.8 10.863 9.076 12.639l0.094 0.027c0.667 0.107 0.88-0.307 0.88-0.667v-2.253c-3.693 0.8-4.48-1.747-4.48-1.747-0.259-0.845-0.798-1.539-1.506-1.991l-0.014-0.009c-1.213-0.827 0.093-0.8 0.093-0.8 0.87 0.116 1.603 0.616 2.033 1.321l0.007 0.012c0.501 0.879 1.432 1.461 2.499 1.461 0.507 0 0.983-0.131 1.396-0.362l-0.015 0.007c0.065-0.703 0.374-1.324 0.84-1.787l0-0c-2.853-0.293-6.027-1.44-6.027-6.52-0.001-0.045-0.002-0.097-0.002-0.149 0-1.335 0.507-2.552 1.339-3.468l-0.004 0.004c-0.173-0.474-0.273-1.021-0.273-1.592 0-0.698 0.15-1.361 0.419-1.958l-0.012 0.030s1.12-0.36 3.667 1.333c1-0.28 2.148-0.44 3.333-0.44s2.334 0.161 3.424 0.461l-0.090-0.021c2.547-1.72 3.667-1.333 3.667-1.333 0.257 0.567 0.407 1.23 0.407 1.928 0 0.571-0.1 1.118-0.284 1.625l0.011-0.033c0.828 0.912 1.335 2.129 1.335 3.464 0 0.053-0.001 0.105-0.002 0.157l0-0.008c0 5.093-3.12 6.213-6.093 6.547 0.573 0.576 0.928 1.37 0.928 2.247 0 0.077-0.003 0.154-0.008 0.229l0.001-0.010v3.653c0 0.36 0.213 0.787 0.893 0.667 5.37-1.804 9.17-6.792 9.17-12.667 0-7.358-5.96-13.324-13.316-13.333h-0.001z"></path>
</symbol>
<symbol id="icon-chevron-right" viewBox="0 0 32 32">
<path d="M16 2.667c-0.015-0-0.033-0-0.050-0-7.364 0-13.333 5.97-13.333 13.333 0 5.875 3.8 10.863 9.076 12.639l0.094 0.027c0.667 0.107 0.88-0.307 0.88-0.667v-2.253c-3.693 0.8-4.48-1.747-4.48-1.747-0.259-0.845-0.798-1.539-1.506-1.991l-0.014-0.009c-1.213-0.827 0.093-0.8 0.093-0.8 0.87 0.116 1.603 0.616 2.033 1.321l0.007 0.012c0.501 0.879 1.432 1.461 2.499 1.461 0.507 0 0.983-0.131 1.396-0.362l-0.015 0.007c0.065-0.703 0.374-1.324 0.84-1.787l0-0c-2.853-0.293-6.027-1.44-6.027-6.52-0.001-0.045-0.002-0.097-0.002-0.149 0-1.335 0.507-2.552 1.339-3.468l-0.004 0.004c-0.173-0.474-0.273-1.021-0.273-1.592 0-0.698 0.15-1.361 0.419-1.958l-0.012 0.030s1.12-0.36 3.667 1.333c1-0.28 2.148-0.44 3.333-0.44s2.334 0.161 3.424 0.461l-0.090-0.021c2.547-1.72 3.667-1.333 3.667-1.333 0.257 0.567 0.407 1.23 0.407 1.928 0 0.571-0.1 1.118-0.284 1.625l0.011-0.033c0.828 0.912 1.335 2.129 1.335 3.464 0 0.053-0.001 0.105-0.002 0.157l0-0.008c0 5.093-3.12 6.213-6.093 6.547 0.573 0.576 0.928 1.37 0.928 2.247 0 0.077-0.003 0.154-0.008 0.229l0.001-0.010v3.653c0 0.36 0.213 0.787 0.893 0.667 5.37-1.804 9.17-6.792 9.17-12.667 0-7.358-5.96-13.324-13.316-13.333h-0.001z"></path>
</symbol>
<symbol id="icon-home" viewBox="0 0 32 32">
<path d="M16 4l-12 9.998v14.002h7.998v-8h8.002v8h7.998v-14.002z"></path>
</symbol>
<symbol id="icon-arrow-right" viewBox="0 0 32 32">
<path d="M16 4l-12 9.998v14.002h7.998v-8h8.002v8h7.998v-14.002z"></path>
</symbol>
<symbol id="icon-hamburger" viewBox="0 0 32 32">
<path d="M1 14.84h30v2.5h-30zM1 22.040h30v2.5h-30zM1 7.46h30v2.5h-30z"></path>
</symbol>
</defs>
</svg>
