<svg aria-hidden="true" style="position: absolute; width: 0; height: 0; overflow: hidden;" version="1.1" xmlns="http://www.w3.org/2000/svg" xmlns:xlink="http://www.w3.org/1999/xlink">
<defs>
<symbol id="icon-house" viewBox="0 0 35 32">
<path fill="#d31342" style="fill: var(--color1, #d31342)" d="M32.64 15.401c0.599-0.65 0.541-1.646-0.129-2.225l-14.772-12.75c-0.671-0.578-1.745-0.566-2.402 0.027l-14.822 13.403c-0.656 0.594-0.689 1.589-0.071 2.222l0.372 0.382c0.617 0.633 1.613 0.708 2.224 0.168l1.108-0.979v14.326c0 0.879 0.722 1.591 1.612 1.591h5.778c0.89 0 1.612-0.712 1.612-1.591v-10.023h7.37v10.023c-0.013 0.878 0.624 1.59 1.515 1.59h6.123c0.89 0 1.613-0.711 1.613-1.59v-14.124c0 0 0.306 0.264 0.683 0.592s1.168 0.065 1.767-0.586l0.42-0.455z"></path>
</symbol>
<symbol id="icon-quote" viewBox="0 0 43 32">
<path fill="#e1e1e1" style="fill: var(--color2, #e1e1e1)" d="M32.019-0.003c1.928 0 3.75 0.52 5.465 1.561s3.108 2.537 4.179 4.489c1.029 1.952 1.543 4.25 1.543 6.896s-0.643 5.226-1.928 7.741c-0.429 0.911-1.2 2.081-2.316 3.513-1.157 1.431-2.228 2.667-3.214 3.708l-4.051 4.098-2.893-4.814c2.063-1.302 3.824-2.855 5.307-4.647l0.030-0.037c1.543-1.821 2.314-3.491 2.314-5.009 0-0.781-0.171-1.41-0.514-1.887-1.5 1.084-3.172 1.627-5.015 1.627-1.328 0-2.593-0.412-3.793-1.236-1.238-0.782-2.238-1.834-2.936-3.079l-0.022-0.043c-0.771-1.258-1.157-2.559-1.157-3.903 0-1.519 0.45-2.971 1.35-4.359 0.866-1.389 2.011-2.526 3.364-3.357l0.044-0.025c1.371-0.824 2.784-1.236 4.242-1.236zM8.937-0.003c1.928 0 3.75 0.52 5.465 1.561s3.108 2.536 4.179 4.489c1.029 1.952 1.543 4.25 1.543 6.896 0 1.864-0.236 3.534-0.707 5.009-0.472 1.518-1.286 3.101-2.444 4.749-1.115 1.561-2.164 2.862-3.15 3.903-0.986 1.084-2.7 2.884-5.144 5.399l-2.893-4.814c2.063-1.302 3.824-2.855 5.307-4.647l0.030-0.037c1.543-1.821 2.315-3.491 2.315-5.009 0-0.781-0.172-1.41-0.514-1.887-1.5 1.084-3.172 1.627-5.015 1.627-1.328 0-2.593-0.412-3.793-1.236-1.238-0.782-2.238-1.834-2.936-3.079l-0.022-0.043c-0.771-1.258-1.157-2.559-1.157-3.903 0-1.519 0.429-2.971 1.286-4.359 0.866-1.389 2.011-2.526 3.364-3.357l0.045-0.025c1.371-0.824 2.784-1.236 4.243-1.236z"></path>
</symbol>
<symbol id="icon-github" viewBox="0 0 32 32">
<path fill="#fea5bb" style="fill: var(--color1, #fea5bb)" d="M32.008 16.004c0 8.839-7.165 16.004-16.004 16.004s-16.004-7.165-16.004-16.004c0-8.839 7.165-16.004 16.004-16.004s16.004 7.165 16.004 16.004z"></path>
<path fill="#fff" style="fill: var(--color2, #fff)" d="M16.004 6.59c-5.171 0-9.414 4.243-9.414 9.414 0 4.412 3.096 8.421 7.208 9.414v-3.115c-0.407 0.089-0.782 0.092-1.197-0.030-0.556-0.164-1.008-0.535-1.344-1.1-0.214-0.361-0.593-0.752-0.988-0.723l-0.097-1.099c0.855-0.073 1.595 0.521 2.034 1.259 0.195 0.328 0.42 0.52 0.708 0.605 0.279 0.082 0.578 0.043 0.926-0.080 0.088-0.698 0.407-0.959 0.649-1.327v-0.001c-2.452-0.366-3.429-1.667-3.817-2.693-0.514-1.363-0.238-3.067 0.671-4.143 0.018-0.021 0.050-0.076 0.037-0.114-0.417-1.259 0.091-2.3 0.11-2.411 0.481 0.142 0.559-0.143 2.089 0.786l0.264 0.159c0.111 0.066 0.076 0.028 0.187 0.020 0.639-0.174 1.312-0.269 1.976-0.278 0.669 0.009 1.338 0.104 2.003 0.285l0.086 0.009c-0.007-0.001 0.023-0.005 0.075-0.036 1.911-1.158 1.843-0.779 2.355-0.946 0.019 0.111 0.52 1.169 0.107 2.412-0.056 0.171 1.657 1.739 0.708 4.257-0.388 1.027-1.365 2.328-3.817 2.694v0.001c0.314 0.479 0.692 0.734 0.69 1.722v3.888c4.112-0.993 7.208-5.002 7.208-9.414 0-5.171-4.243-9.414-9.414-9.414z"></path>
</symbol>
<symbol id="icon-telegram" viewBox="0 0 32 32">
<path fill="#fea5bb" style="fill: var(--color1, #fea5bb)" d="M32.008 16.004c0 8.839-7.165 16.004-16.004 16.004s-16.004-7.165-16.004-16.004c0-8.839 7.165-16.004 16.004-16.004s16.004 7.165 16.004 16.004z"></path>
<path fill="#fff" style="fill: var(--color2, #fff)" d="M12.871 18.38l-0.318 4.17c0.454 0 0.651-0.182 0.887-0.401l2.131-1.901 4.416 3.018c0.81 0.421 1.38 0.199 1.599-0.695l2.898-12.676 0.001-0.001c0.257-1.117-0.433-1.554-1.222-1.28l-17.037 6.088c-1.163 0.421-1.145 1.026-0.198 1.3l4.356 1.264 10.117-5.908c0.476-0.294 0.909-0.132 0.553 0.163l-8.184 6.858z"></path>
</symbol>
<symbol id="icon-facebook" viewBox="0 0 32 32">
<path fill="#fea5bb" style="fill: var(--color1, #fea5bb)" d="M16.004 32.008c8.839 0 16.004-7.165 16.004-16.004s-7.165-16.004-16.004-16.004c-8.839 0-16.004 7.165-16.004 16.004s7.165 16.004 16.004 16.004z"></path>
<path fill="#fff" style="fill: var(--color2, #fff)" d="M20.451 15.986h-2.611v9.621h-3.956v-9.621h-1.881v-3.381h1.881v-2.188c0-1.565 0.739-4.015 3.991-4.015l2.93 0.012v3.282h-2.126c-0.349 0-0.839 0.175-0.839 0.922v1.99h2.956l-0.346 3.378z"></path>
</symbol>
<symbol id="icon-telegram-hover" viewBox="0 0 32 32">
<path fill="#d41443" style="fill: var(--color1, #d41443)" d="M32.008 16.004c0 8.839-7.165 16.004-16.004 16.004s-16.004-7.165-16.004-16.004c0-8.839 7.165-16.004 16.004-16.004s16.004 7.165 16.004 16.004z"></path>
<path fill="#fff" style="fill: var(--color2, #fff)" d="M12.871 18.38l-0.318 4.17c0.454 0 0.651-0.182 0.887-0.401l2.131-1.901 4.416 3.018c0.81 0.421 1.38 0.199 1.599-0.695l2.899-12.676c0.257-1.117-0.433-1.554-1.222-1.28l-17.037 6.088c-1.163 0.421-1.145 1.026-0.198 1.3l4.356 1.264 10.117-5.908c0.476-0.294 0.909-0.132 0.553 0.163l-8.184 6.858z"></path>
</symbol>
<symbol id="icon-github-hover" viewBox="0 0 32 32">
<path fill="#d41443" style="fill: var(--color1, #d41443)" d="M32.008 16.004c0 8.839-7.165 16.004-16.004 16.004s-16.004-7.165-16.004-16.004c0-8.839 7.165-16.004 16.004-16.004s16.004 7.165 16.004 16.004z"></path>
<path fill="#fff" style="fill: var(--color2, #fff)" d="M16.004 6.59c-5.171 0-9.414 4.243-9.414 9.414 0 4.412 3.096 8.421 7.208 9.414v-3.115c-0.407 0.089-0.782 0.092-1.197-0.030-0.556-0.164-1.008-0.535-1.344-1.1-0.214-0.361-0.593-0.752-0.988-0.723l-0.097-1.099c0.855-0.073 1.595 0.521 2.034 1.259 0.195 0.328 0.42 0.52 0.708 0.605 0.279 0.082 0.578 0.043 0.926-0.080 0.088-0.698 0.407-0.959 0.649-1.327v-0.001c-2.452-0.366-3.429-1.667-3.817-2.693-0.514-1.363-0.238-3.067 0.671-4.143 0.018-0.021 0.050-0.076 0.037-0.114-0.417-1.259 0.091-2.3 0.11-2.411 0.481 0.142 0.559-0.143 2.089 0.786l0.264 0.159c0.111 0.066 0.076 0.028 0.187 0.020 0.639-0.174 1.312-0.269 1.976-0.278 0.669 0.009 1.338 0.104 2.003 0.285l0.086 0.009c-0.007-0.001 0.023-0.005 0.075-0.036 1.911-1.158 1.843-0.779 2.355-0.946 0.019 0.111 0.52 1.169 0.107 2.412-0.056 0.171 1.657 1.739 0.708 4.257-0.388 1.027-1.365 2.328-3.817 2.694v0.001c0.314 0.479 0.692 0.734 0.69 1.722v3.888c4.112-0.993 7.208-5.002 7.208-9.414 0-5.171-4.243-9.414-9.414-9.414z"></path>
</symbol>
<symbol id="icon-facebook-hover" viewBox="0 0 32 32">
<path fill="#d41443" style="fill: var(--color1, #d41443)" d="M16.004 32.008c8.839 0 16.004-7.165 16.004-16.004s-7.165-16.004-16.004-16.004c-8.839 0-16.004 7.165-16.004 16.004s7.165 16.004 16.004 16.004z"></path>
<path fill="#fff" style="fill: var(--color2, #fff)" d="M20.451 15.986h-2.611v9.621h-3.956v-9.621h-1.881v-3.381h1.881v-2.188c0-1.565 0.739-4.015 3.991-4.015l2.93 0.012v3.282h-2.126c-0.349 0-0.839 0.175-0.839 0.922v1.99h2.956l-0.346 3.378z"></path>
</symbol>
<symbol id="icon-Vector-hover" viewBox="0 0 26 32">
<path fill="none" stroke="#fff" style="stroke: var(--color1, #fff)" stroke-linejoin="round" stroke-linecap="round" stroke-miterlimit="4" stroke-width="6.4" d="M5.177 3.2l14.169 12.8-14.169 12.8"></path>
</symbol>
<symbol id="icon-Vector" viewBox="0 0 26 32">
<path fill="none" stroke="#d41443" style="stroke: var(--color2, #d41443)" stroke-linejoin="round" stroke-linecap="round" stroke-miterlimit="4" stroke-width="6.4" d="M5.177 3.2l14.169 12.8-14.169 12.8"></path>
</symbol>
</defs>
</svg>
